<mxfile host="app.diagrams.net" modified="2023-07-03T15:36:43.437Z" agent="Mozilla/5.0 (Windows NT 10.0; Win64; x64) AppleWebKit/537.36 (KHTML, like Gecko) Chrome/114.0.0.0 Safari/537.36" version="21.5.2" etag="ERhBaf0dG_HjEYTGti83" type="github">
  <diagram name="페이지-1" id="r8XnjU0rIp04OvQbjsOc">
    <mxGraphModel>
      <root>
        <mxCell id="0" />
        <mxCell id="1" parent="0" />
      </root>
    </mxGraphModel>
  </diagram>
</mxfile>
